<?xml version="1.0"?>
<svg xmlns="http://www.w3.org/2000/svg" viewBox="0 0 64 64" width="512" height="512"><g id="Headphone"><path d="M62,32A30,30,0,0,0,2,32,29.689,29.689,0,0,0,7.987,49.963c.007.063,0,.125.014.187l1.041,5.909a3,3,0,0,0,2.948,2.479,3.138,3.138,0,0,0,.528-.046l1.271-.224a7.011,7.011,0,0,0,6.246,3.867,7.125,7.125,0,0,0,1.23-.108l3.939-.7a3.005,3.005,0,0,0,2.434-3.476L24.859,42.1a3,3,0,0,0-3.475-2.433l-3.94.694a6.99,6.99,0,0,0-5.477,4.851A23.633,23.633,0,0,1,8.037,32.9a3.975,3.975,0,0,0,3.111-3.4,21,21,0,0,1,41.7,0,3.975,3.975,0,0,0,3.111,3.4,23.633,23.633,0,0,1-3.93,12.312,6.989,6.989,0,0,0-5.478-4.851l-3.939-.694A3,3,0,0,0,39.141,42.1L36.362,57.856A3.005,3.005,0,0,0,38.8,61.332l3.939.7a7.125,7.125,0,0,0,1.23.108,7.011,7.011,0,0,0,6.246-3.867l1.271.224a3.138,3.138,0,0,0,.528.046,3,3,0,0,0,2.948-2.479L56,50.15c.011-.062.007-.124.014-.187A29.689,29.689,0,0,0,62,32ZM53.566,46.674l-.109-.019A25.6,25.6,0,0,0,57.959,33h2a27.63,27.63,0,0,1-4.725,14.6A2.969,2.969,0,0,0,53.566,46.674ZM6.041,33a25.6,25.6,0,0,0,4.5,13.655l-.108.019a2.968,2.968,0,0,0-1.67.922A27.63,27.63,0,0,1,4.04,33Zm6.13,23.522h0a1,1,0,0,1-1.158-.811L9.971,49.8a1,1,0,0,1,.811-1.158l.985-.174,1.388,7.879Zm9.56-14.886a1.055,1.055,0,0,1,.176-.015,1,1,0,0,1,.983.826L25.668,58.2a1,1,0,0,1-.812,1.158l-.984.174L20.746,41.81Zm-3.939.7.985-.174L21.9,59.884l-.984.173A5,5,0,0,1,15.125,56l-1.389-7.878A5.006,5.006,0,0,1,17.792,42.331ZM54.838,29.258a23,23,0,0,0-45.676,0A1.985,1.985,0,0,1,7.185,31H4.025a27.993,27.993,0,0,1,55.95,0h-3.16A1.985,1.985,0,0,1,54.838,29.258ZM38.5,58.951a.992.992,0,0,1-.166-.747L41.11,42.447a1,1,0,0,1,.983-.826,1.055,1.055,0,0,1,.176.015l.985.174L40.128,59.536l-.984-.174A.989.989,0,0,1,38.5,58.951Zm4.585,1.106-.985-.174,3.125-17.726.985.174a5.006,5.006,0,0,1,4.056,5.792L48.875,56A5,5,0,0,1,43.083,60.057Zm9.905-4.346a1,1,0,0,1-1.158.811h0l-.984-.173,1.388-7.879.986.174a1,1,0,0,1,.81,1.158Z"/></g></svg>
